<?xml version="1.0" encoding="utf-8"?>
<!-- Generator: Adobe Illustrator 26.2.1, SVG Export Plug-In . SVG Version: 6.00 Build 0)  -->
<svg version="1.1" id="e87ddc62-7528-42a5-8b37-f74ed0351019"
	 xmlns="http://www.w3.org/2000/svg" xmlns:xlink="http://www.w3.org/1999/xlink" x="0px" y="0px" viewBox="0 0 1131 812.2"
	 style="enable-background:new 0 0 1131 812.2;" xml:space="preserve">
<style type="text/css">
	.st0{opacity:0.3;fill:#FFC107;enable-background:new    ;}
	.st1{fill:none;stroke:#3F3D56;stroke-miterlimit:10;}
	.st2{fill:#FFC107;}
	.st3{fill:#F2F2F2;}
	.st4{fill:#E89B82;}
	.st5{fill:#2A367C;}
	.st6{fill:#222E33;}
	.st7{fill:#023B59;}
	.st8{fill:#0B4E76;}
	.st9{fill:#3551A3;}
	.st10{fill:#F8AF99;}
	.st11{fill:#D9AB9E;}
	.st12{fill:#496EB5;}
	.st13{fill:#D0D2D3;}
	.st14{fill:#BBBDBF;}
	.st15{fill:#84769B;}
	.st16{fill:#CFD0D2;}
	.st17{fill:#E6E7E8;}
	.st18{fill:#A2A4A7;}
	.st19{fill:#672C13;}
	.st20{fill:#7A4B35;}
	.st21{fill:none;stroke:#672C13;stroke-width:3.38;stroke-linecap:round;stroke-linejoin:round;stroke-miterlimit:10;}
	.st22{fill:#EA6E5E;}
</style>
<rect x="689.3" y="51.3" class="st0" width="80.8" height="30.1"/>
<rect x="823.6" class="st0" width="80.8" height="30.1"/>
<rect x="829.2" y="93.1" class="st0" width="80.8" height="30.1"/>
<rect x="570.6" y="127.6" class="st0" width="80.8" height="30.1"/>
<rect x="545" y="251.3" class="st0" width="80.8" height="30.1"/>
<rect x="667" y="248.5" class="st0" width="80.8" height="30.1"/>
<polyline class="st1" points="823.6,14.9 770.1,65.6 829.2,108.1 "/>
<line class="st1" x1="689.3" y1="65.6" x2="611" y2="127.6"/>
<polyline class="st1" points="585.4,251.3 611,157.7 707.4,248.5 "/>
<rect x="144.3" y="82.3" class="st0" width="80.8" height="30.1"/>
<rect x="278.6" y="31" class="st0" width="80.8" height="30.1"/>
<rect x="284.2" y="124.1" class="st0" width="80.8" height="30.1"/>
<rect x="25.6" y="158.6" class="st0" width="80.8" height="30.1"/>
<rect y="282.3" class="st0" width="80.8" height="30.1"/>
<rect x="122" y="279.5" class="st0" width="80.8" height="30.1"/>
<polyline class="st1" points="278.6,45.9 225.1,96.6 284.2,139.1 "/>
<line class="st1" x1="144.3" y1="96.6" x2="66" y2="158.6"/>
<polyline class="st1" points="40.4,282.3 66,188.7 162.4,279.5 "/>
<line class="st1" x1="365" y1="139.1" x2="456.6" y2="139.1"/>
<rect x="415.5" y="123.7" class="st2" width="95" height="30"/>
<line class="st1" x1="510.6" y1="138.7" x2="570.6" y2="138.7"/>
<line class="st1" x1="415" y1="138.7" x2="359.4" y2="45.9"/>
<ellipse class="st3" cx="691" cy="714.2" rx="440" ry="98"/>
<path class="st4" d="M777.7,411.5c-41.9,21.8-113.2-1.4-113.2-1.4s-5.6,4.4-9.5,6.7c-2.7,1.5-13.2,7.8-16.9,9.1
	c-3.7,1.3-7.4-5.3-5.3-9c2.1-3.7,7.2-13.3,15-16.9c7.8-3.5,15.5-0.4,15.5-0.4s53.1,12,95.3-14.1
	C771.1,380.2,782.7,405.7,777.7,411.5z"/>
<path class="st4" d="M797.4,389.5c0,0-10.4,18.1-19.7,22c-9.3,3.9-30.8-19.2-19.1-26.1c11.7-6.8,20.3-24.9,20.3-24.9L797.4,389.5z"
	/>
<path class="st5" d="M800.4,396.5c36.6-43.2,42.5-88.2,35.2-110.7c-5-18.5-33.4-20.8-42.1,1.1c-6.4,18.3-3,41.4-22.6,81.1
	C771.8,373.7,796.4,395.3,800.4,396.5z"/>
<path class="st6" d="M634.7,698c-6.2,2.7-47.6-3.9-57.3-7c-6-1.9-1-7.9,7.1-7.5c17.1,0.7,38.7-7.5,38.7-7.5l16.4,2.8
	C639.6,678.7,640.9,695.3,634.7,698z"/>
<path class="st7" d="M619.5,676.2l23,3.5c0,0,55.4-127.6,63.4-147.3c11.3-27.9,18.2-44.8,18.2-44.8s-47.5-27.4-57.5-10.7
	C651.2,502.7,619.5,676.2,619.5,676.2z"/>
<path class="st6" d="M666.7,721.2c-1.7,6,27.8,9.5,34.3,7.3c6.5-2.2,18.7-16.4,28.2-25.9c2.1-6.2-8.3-11.3-8.3-11.3l-12.9-1.1
	c0,0-9,15.7-17,22.5C683.7,719,668.8,713.6,666.7,721.2z"/>
<path class="st8" d="M702,697.2l22.2-7.1c0,0,0-137.4-11-171.9c-9.2-28.6,28.2-76-7.6-69c-29,5.6-46.9,25.7-46.9,45.6
	C658.6,545,702,697.2,702,697.2z"/>
<path class="st8" d="M796.8,435.4c-18.9-1.5-91.3,13.8-91.3,13.8l0.4,67.6c0,0,182.9,39.3,199.6-27.1c6.9-27.6,4.8-52.7-4-68.1
	C882.4,421.6,808.9,426.3,796.8,435.4z"/>
<path class="st9" d="M903.6,426c-3,16.5-92.5,28-101,13.6c-6.4-10.8,0.8-49.2-3.3-70c-4.6-23.2-9.9-55.3-4.5-81.4
	c2.3-10.9,14.5-16.7,14.5-16.7l27.5-9c0,0,18.8-0.5,32.6,6.1c13.8,6.6,22.2,57.2,23.6,82C894.9,384.8,907.4,405.4,903.6,426z"/>
<path class="st10" d="M802.3,261l3.7,12.4c0,0-8.3,9.1,7.7,6.9c16-2.1,23.1-17.9,23.1-17.9l-12-16.4c0,0,11.1-16,11.1-30.1
	c0.1-15.3-5-22.9-10-38.8c-6.3-20.1-33-29.3-33-29.3L759.3,169c0,0-2.6,4.2-4,10.8c-1.2,5.6,4,34.5,12.2,59.4
	c3.3,10.1,8.4,20.2,18.1,22.7C795.4,264.4,802.3,261,802.3,261z"/>
<path class="st11" d="M816.3,216.4c1.7,5.9,3.9,7,7.1,6c3.2-0.9,6.5-8.5,4.8-14.4c-1.7-5.9-5.8-6.3-9-5.4
	C816,203.5,814.5,210.5,816.3,216.4z"/>
<g>
	<path class="st10" d="M820.5,405.2c-41.9,21.8-113.2-1.4-113.2-1.4s-5.6,4.4-9.5,6.7c-2.7,1.5-13.2,7.8-16.9,9.1
		c-3.7,1.3-7.4-5.3-5.3-9c2.1-3.7,7.1-13.3,15-16.9c7.8-3.5,15.5-0.4,15.5-0.4s53.1,12,95.3-14.1
		C813.9,373.9,825.5,399.4,820.5,405.2z"/>
	<path class="st10" d="M840.2,383.2c0,0-10.4,18.1-19.7,22c-9.2,3.9-30.8-19.2-19.1-26.1c11.7-6.8,20.3-24.9,20.3-24.9L840.2,383.2z
		"/>
	<path class="st12" d="M843.2,390.3c36.6-43.2,42.5-88.2,35.2-110.7c-5-18.5-33.4-20.8-42.1,1.1c-6.4,18.3-3,41.4-22.6,81.1
		C814.6,367.5,839.2,389,843.2,390.3z"/>
</g>
<path class="st13" d="M919.4,734.5c1.9,4.8,7.4,7.1,12.2,5.2l0,0c4.8-1.9,7.1-7.4,5.2-12.2l-71.1-176.6c-1.9-4.8-7.4-7.1-12.2-5.2
	l0,0c-4.8,1.9-7.1,7.4-5.2,12.2L919.4,734.5z"/>
<path class="st13" d="M724.9,734.5c-1.9,4.8-7.4,7.1-12.2,5.2l0,0c-4.8-1.9-7.1-7.4-5.2-12.2l71.1-176.6c1.9-4.8,7.4-7.1,12.2-5.2
	l0,0c4.8,1.9,7.1,7.4,5.2,12.2L724.9,734.5z"/>
<rect x="760.2" y="545" class="st14" width="121.3" height="25.7"/>
<rect x="751.8" y="636.9" class="st13" width="144.8" height="19.3"/>
<path class="st15" d="M860.5,466c26.4-39.6,15-102.5,21-138.4c3.8-22.3,29-32.8,44.1-5.1c15.1,27.7,26.9,96.3,11.8,149.1
	c-15.1,52.8-36.1,81.1-55.9,81.1c-32.1,0-80.9,0-121.3,0c-40.4,0-47.3-45.9-4.9-46.9C797.6,504.7,834.1,505.6,860.5,466z"/>
<g>
	<polygon class="st16" points="589.7,400.3 706.1,400.3 678,327.6 561.6,327.6 	"/>
	<polygon class="st17" points="588.8,400.3 701.3,400.3 674.2,327.6 561.6,327.6 	"/>
	<rect x="588.6" y="400.3" class="st16" width="174.2" height="13.6"/>
</g>
<g>
	<path class="st13" d="M722,733.1c-1.4,5-6.5,7.9-11.5,6.5l0,0c-5-1.4-7.9-6.5-6.5-11.5l59.6-300c1.4-5,6.5-7.9,11.5-6.5l0,0
		c5,1.4,7.9,6.5,6.5,11.5L722,733.1z"/>
	<path class="st13" d="M925.3,733.1c1.4,5,6.5,7.9,11.5,6.5l0,0c5-1.4,7.9-6.5,6.5-11.5l-59.6-300c-1.4-5-6.5-7.9-11.5-6.5l0,0
		c-5,1.4-7.9,6.5-6.5,11.5L925.3,733.1z"/>
	<path class="st13" d="M408,733.1c-1.4,5-6.5,7.9-11.5,6.5l0,0c-5-1.4-7.9-6.5-6.5-11.5l59.6-300c1.4-5,6.5-7.9,11.5-6.5l0,0
		c5,1.4,7.9,6.5,6.5,11.5L408,733.1z"/>
	<path class="st13" d="M611.3,733.1c1.4,5,6.5,7.9,11.5,6.5l0,0c5-1.4,7.9-6.5,6.5-11.5l-59.6-300c-1.4-5-6.5-7.9-11.5-6.5l0,0
		c-5,1.4-7.9,6.5-6.5,11.5L611.3,733.1z"/>
	<rect x="427.9" y="411.4" class="st14" width="162.6" height="25.7"/>
	<rect x="590.4" y="411.4" class="st18" width="313" height="25.7"/>
</g>
<path class="st19" d="M753.8,206.7c3.6,6.6,7.4,14.3,13,19.8c6.3,6.3,14.4,5.8,17.1-3.4c2.5-8.6,1.1-18.7-1.4-26.9
	c-1.4-4.5-3.6-9.5-8.2-12.1c-7.3-4-15.9-1.4-20.1,5C750,195.1,750.6,200.9,753.8,206.7z"/>
<g>
	<path class="st10" d="M762.2,217.5c1.5,8.3,3.7,16.4,6.9,24.2c3.2,7.9,8.2,22.8,17.8,25.1c3,0.7,5.3,0.3,8.5-0.3
		c12.4-2.3,24.8-12.4,31.6-22.7c12.7-19.2,7.4-61.4-9.5-75.9c-15.4-13.2-57.7-0.2-57.6,24C760,200.2,760.7,208.9,762.2,217.5z"/>
</g>
<path class="st4" d="M774.1,236.7c0.9,0.3,2.9,1,3.9,1.1c3.8,0.5,7.1-0.4,10.7-1.8c5-2.1,9.7-5.9,15.4-4.7c3.4,0.7,6.3,1.1,9.8,0.5
	c4.4-0.7,7.9-4.2,9.1-8.4c1-3.2,0.7-7.3,2.2-10.3c1.8-3.8,4.7-6.6,8.3-8.3c1.7,14.6-0.2,29.7-6.4,39.1
	c-6.8,10.3-19.1,20.3-31.6,22.7c-3.3,0.6-5.6,1-8.5,0.3c-9.6-2.3-14.6-17.2-17.8-25.1c-0.7-1.8-1.4-3.6-2.1-5.5
	C769.1,235.6,771.3,235.8,774.1,236.7z"/>
<path class="st19" d="M821.4,198.1c0.8,2,2.4,11.5,3.3,13.3c0.9,1.8,4.7-1.7,4.7-1.7c2.6-3.5-2.1-10,2.9-11.8
	c5.4-1.9,8.2,6.1,8.8,9.9c3.7-5.1,4.5-13.9,4.6-20.3c0.1-11.8-0.4-16-2.9-20.8c-8.8-17.1-15.4-14.9-27.7-11.6
	c-5.6,1.5-11.4,9.2-12.8,15.1c-1.5,6.3,3.2,10.5,7.8,13.9C815.9,188.3,817.7,188.9,821.4,198.1z"/>
<path class="st10" d="M837.2,197.4c6.5,4.3,6.3,20.8-3.6,28.2c-3.3-2.5-4.8-10.5-5.9-14.5c-1.1-3.8-2-7.6-0.2-11.3
	C828.1,198.6,832.4,194.2,837.2,197.4z"/>
<g>
	<g>
		<path class="st19" d="M786.4,208.5c0.1-0.2,1-0.3,1.2-0.3c0.8-0.1,1.5-0.5,2.2-0.9c1.7-0.8,3.4-1,5.2-1.2c1.7-0.2,3.5-0.2,5.2-0.3
			c0.7-0.1,1.4,0.1,2.1,0.3c0.3,0.1,0.6,0.2,1,0.3c0.5,0.2,0.6,0.3,1.1-0.1c0.3-0.3,0.3-1.4,0.3-1.8c0-0.6,0-1.3-0.3-1.8
			c0.6,1,0,0.1-0.1-0.1c-0.2-0.3-0.3-0.4-0.6-0.6c-0.3-0.2-0.7-0.3-1.1-0.5c-0.7-0.3-1.5-0.5-2.3-0.7c-0.9-0.3-1.6-0.5-2.6-0.4
			c-1.2,0.1-2.3,0.3-3.4,0.6c-2,0.4-3.8,1-5.5,2.1c-1.4,0.8-2.8,2.5-2.9,4.2C786,207.5,786.2,209,786.4,208.5L786.4,208.5z"/>
	</g>
</g>
<g>
	<g>
		<path class="st19" d="M772.7,209c-0.1-0.5-0.5-0.8-0.9-1.1c-0.2-0.2-0.5-0.4-0.8-0.5c-0.4-0.1-0.8,0-1.2,0c-1,0-1.9,0.1-2.9,0.3
			c-1,0.2-2.1,0.3-3,0.9c-0.9,0.5-2.3,0.9-2.7,2c-0.2,0.7-0.3,1.6,0,2.2c0.2,0.4,0.2,0.6,0.6,0.5c0.3-0.1,0.5-0.2,0.8-0.3
			c0.5-0.2,0.9-0.3,1.4-0.3c0.5-0.1,1-0.2,1.5-0.4c1-0.3,2-0.6,3-0.8c0.5-0.1,0.9-0.2,1.4-0.2c0.4-0.1,0.9,0,1.3-0.2
			c0.2-0.1,1-0.6,1.2-0.5C772.7,210.6,772.7,209.2,772.7,209L772.7,209z"/>
	</g>
</g>
<path class="st20" d="M771.4,218.4c0.4,2.1-0.1,4-1.3,4.2c-1.1,0.2-2.4-1.3-2.8-3.4c-0.4-2.1,0.1-4,1.3-4.2
	C769.7,214.8,771,216.3,771.4,218.4z"/>
<path class="st20" d="M795.4,215c0.4,2.1-0.1,4-1.3,4.2c-1.1,0.2-2.4-1.3-2.8-3.4c-0.4-2.1,0.1-4,1.3-4.2
	C793.7,211.4,795,212.9,795.4,215z"/>
<path class="st19" d="M735.2,175.7c2.6,10.8,13.9,27.5,27.6,27.4c10.1,0,15.8-12.8,23.6-18.8c8.4-6.4,10.3-9.4,16-12
	c5.7-2.7,14.5-6.9,19.2-11.6c7.8-8-3.4-14.7-9-19.4c-5.1-4.2-10.9-6.4-17.1-3c-6.1,3.3-8.5,9.1-16.6,8c-6-0.9-9.1-6.1-13.8-9.3
	c-1.7,4.8,0.3,12.7-2.9,16.5c-0.1,0.2-0.3,0.3-0.5,0.5c0,0-21.2,8.8-24-7.6c0.1,0.9-1.3,3.2-1.6,4.1c-1.2,3.6-1.8,7.4-2,11.2
	C733.8,166.4,734.1,171.3,735.2,175.7z"/>
<path class="st21" d="M792.4,242c-1,1.2-3.3,3.6-6.8,4.8c-2.9,1-5.6,0.8-7.7,0.3"/>
<g>
	<g>
		<path class="st22" d="M776,211.5c0.2,1.7,0.5,3.4,0.8,5.1c0.1,0.8,0.4,1.8,0.4,2.6c0,0.8-0.4,1.7-0.7,2.4
			c-1.1,2.5-3.6,4.8-3.6,7.6c-0.1,5.2,7.6,6,11.3,5c0.6-0.2,1.2-0.6,0.6-1.2c-0.5-0.5-1.8-0.5-2.4-0.3c-1.3,0.4-3,0.2-4.3-0.6
			c-1.8-1.2-1.8-3.1-1.1-4.9c0.9-2.4,2.5-4.4,3-7c0.3-1.4-0.3-2.8-0.7-4.2c-0.5-1.5-1-3-1.4-4.6C777.6,210.9,775.9,210.9,776,211.5
			L776,211.5z"/>
	</g>
</g>
</svg>
